<svg width="53" height="63" viewBox="0 0 53 63" fill="none" xmlns="http://www.w3.org/2000/svg">
<path d="M0.00455577 32.586C0.00455577 25.1791 1.89574 19.4617 5.20232 14.1007C8.58887 8.58761 13.5467 5.2525 19.4762 3.1025C22.2589 2.10637 25.129 1.37447 28.0485 0.916464C29.8477 0.624192 31.647 0.323912 33.4542 0.115719C36.4529 -0.256628 39.3557 0.307898 42.1745 1.26079C49.2794 3.66302 54.4652 8.44348 58.3595 14.7133C60.7489 18.523 62.314 22.7921 62.9535 27.245C64.185 36.0532 61.934 43.8685 56.4603 50.835C52.0622 56.4402 46.4646 60.0956 39.5236 61.617C36.3097 62.3024 33.0084 62.4794 29.7398 62.1415C25.1259 61.6669 20.6463 60.3076 16.5455 58.1378C10.636 55.107 5.89803 50.831 3.00327 44.7533C1.00013 40.5934 -0.0794082 36.1893 0.00455577 32.586ZM49.4993 50.6428L48.8396 49.6379L48.5757 49.9021L49.5593 50.6028C49.4913 51.3595 49.9191 51.7758 50.7588 52.3444C50.5713 51.637 50.1207 51.0282 49.4993 50.6428ZM33.1943 21.884C32.9904 22.4125 32.8305 22.937 33.4822 23.4374C33.3702 22.8449 33.2823 22.3644 33.1903 21.884C32.6465 20.6589 31.9388 19.4818 32.2147 18.0244C33.3902 19.6019 33.5622 21.6077 34.5537 23.5215C35.0975 21.2314 35.5893 19.1695 36.0891 17.0595L32.8904 14.9575C32.7585 16.7752 34.8896 17.5079 34.2938 19.4657C33.81 18.9813 33.3303 18.685 33.1223 18.2646C32.6112 17.318 32.2178 16.3122 31.9509 15.2698C31.687 14.0207 30.9033 13.4922 29.9517 13.0958C30.6274 15.498 31.2831 17.8643 31.9509 20.2184C32.0784 20.6861 32.2652 21.1355 32.5066 21.5557C32.6426 21.7239 32.9704 21.7759 33.1943 21.884ZM17.3211 40.4613C18.7805 42.4632 20.1999 44.425 21.6113 46.3788C22.411 47.5159 23.2466 48.6529 24.0303 49.814C24.562 50.6148 25.1777 50.9751 26.1933 50.7909C27.1018 50.6805 28.0175 50.6403 28.9322 50.6708C31.567 50.6028 34.2059 50.5267 36.8407 50.4746C37.1822 50.5019 37.5242 50.4304 37.8262 50.2685C38.1281 50.1067 38.3773 49.8614 38.544 49.5618C40.2698 46.9117 41.6043 44.0259 42.5063 40.9938C39.8075 36.878 37.1046 32.7541 34.3018 28.4701C32.8025 29.7513 30.8913 29.1187 29.0801 29.1828C27.4808 29.2348 25.8815 29.0427 24.2821 28.9586C24.0129 28.9337 23.7427 28.9951 23.5105 29.134C23.2784 29.2729 23.0963 29.4821 22.9907 29.7313C21.1035 33.3587 19.1843 36.958 17.3211 40.4613ZM43.0941 40.153C44.0177 39.9648 44.7414 39.7526 45.493 39.6806C46.2447 39.6085 47.0004 39.6806 47.7521 39.6566C49.0435 39.6566 50.331 39.6566 51.6184 39.6085C53.0098 39.5725 53.2177 39.4604 53.5336 38.1431C54.4692 34.4437 55.3688 30.7362 56.2564 27.0248C56.3498 26.6782 56.3084 26.309 56.1405 25.9918C54.2453 23.4495 52.4061 20.851 50.335 18.4568C49.3594 17.3318 48.6557 16.2948 48.8076 14.7894C48.8076 14.7213 48.6956 14.6413 48.6037 14.5251C45.1732 15.3259 41.7346 16.1787 38.2721 16.9274C37.8458 16.9825 37.4491 17.176 37.143 17.4782C36.8368 17.7805 36.638 18.1748 36.5769 18.6009C36.0291 21.2834 35.5053 23.9699 35.0295 26.6645C34.9613 27.134 35.0468 27.613 35.2734 28.0297C36.4729 30.1317 37.6724 32.2376 38.9718 34.2675C40.2713 36.2974 41.7187 38.1912 43.0941 40.153ZM2.7114 28.5062C4.67456 31.8213 6.6417 35.0883 8.54488 38.3914C8.92472 39.044 9.34456 39.3403 10.0683 39.2882C11.7353 39.2162 13.4023 39.4287 14.9981 39.9168C15.5062 40.0172 16.0205 40.0827 16.5375 40.113C18.3327 36.7859 20.1159 33.4868 21.8752 30.1717C21.9815 29.8864 21.9815 29.5722 21.8752 29.2869C21.3394 27.7174 20.7876 26.152 20.1999 24.5985C19.3603 22.4045 18.4846 20.2265 17.593 17.9603C14.5823 17.3758 11.4756 17.6801 8.32899 17.6481L2.7114 28.5062ZM24.4821 4.35567C25.0218 5.77299 25.5816 7.27439 26.1613 8.75977C26.5612 9.77672 27.021 10.7096 28.2924 10.8978C28.6481 11.0245 28.9745 11.222 29.252 11.4783C31.3551 12.8836 33.4742 14.2809 35.5413 15.7223C35.8708 15.9938 36.2618 16.1803 36.6801 16.2655C37.0983 16.3506 37.531 16.3318 37.9403 16.2107C39.7555 15.7223 41.5987 15.3459 43.4259 14.9015C45.1892 14.4731 46.9484 14.0167 48.7956 13.5522C48.6757 12.1469 49.4193 10.8057 48.5397 9.28426C48.9875 9.22821 49.4354 9.02001 49.6992 9.16014C51.1066 9.92085 52.498 10.7616 53.8415 11.5904C54.3292 11.8907 54.7651 12.199 55.4408 11.9908C53.806 9.6636 51.7761 7.64175 49.4433 6.01722C45.641 3.39477 41.7866 0.908457 36.8048 1.40892C35.2654 1.56507 33.6901 1.31684 32.1308 1.29282C31.65 1.27133 31.1699 1.3476 30.7194 1.51702C28.7162 2.39384 26.7371 3.32271 24.4861 4.35567H24.4821ZM52.63 53.8057L52.4021 53.5655C52.2221 53.6616 52.0342 53.7497 51.8663 53.8618C50.9427 54.4784 50.0991 55.191 48.9516 55.4633C48.2317 55.6204 47.559 55.9455 46.9884 56.4122C46.3806 56.9246 45.685 57.1849 45.1252 56.7245C43.346 55.2551 41.5587 53.7897 39.8075 52.2843C39.4623 51.9504 39.0527 51.6905 38.6038 51.5205C38.1549 51.3505 37.6761 51.2739 37.1966 51.2954C33.974 51.4395 30.7434 51.5837 27.5167 51.5516C25.2857 51.5316 23.5944 52.2523 21.9191 53.7817C20.3198 55.2191 19.6881 56.4682 20.7477 58.382C20.7756 58.426 20.7477 58.5021 20.7956 58.5341C21.1555 58.8945 21.4593 59.411 21.8952 59.5791C25.1224 60.7873 28.5268 61.4529 31.9708 61.549C36.7769 61.741 41.5538 60.718 45.8609 58.5742C48.3571 57.357 50.6425 55.7471 52.63 53.8057ZM23.4425 4.01535C21.4034 4.25958 19.1963 3.97932 17.1372 4.9282C16.4015 5.26452 15.6818 5.63286 14.9662 6.00521C12.2628 7.34636 9.89997 9.28653 8.05711 11.6785C7.71542 12.0794 7.49123 12.5672 7.40939 13.0878C7.32542 14.6893 7.37739 16.2668 7.37739 17.8603C7.91316 16.9114 7.90916 16.8433 8.80078 16.8193C10.7359 16.7672 12.6751 16.7712 14.6103 16.8193C15.8977 16.8393 17.3011 17.3037 18.4367 16.9274C19.6361 16.527 20.5877 15.3779 21.6353 14.5251C23.1386 13.332 24.642 12.1309 26.1453 10.9218L23.4425 4.01535ZM59.6829 19.1374L59.3031 19.1094C58.7273 21.2034 58.1036 23.2893 57.5798 25.3913C56.6602 28.9826 55.8286 32.586 54.837 36.1893C54.283 37.9648 54.2428 39.8611 54.7211 41.6584C55.5407 44.7213 55.9206 47.8762 54.1253 51.1793C54.801 50.9591 55.3488 50.9511 55.5687 50.6828C57.7798 47.9483 59.619 44.9975 60.7265 41.6544C58.7273 38.6516 57.7958 35.6128 59.9908 32.3377C60.3906 31.7572 60.7625 31.1727 61.1903 30.6081C61.401 30.373 61.631 30.1561 61.878 29.9595C61.802 30.6041 61.5581 31.1606 61.7421 31.4769C62.2459 32.3177 62.0339 33.0784 61.858 33.9192C61.5661 35.3365 61.3662 36.7699 61.1263 38.1952C61.0943 38.4034 61.1263 38.7437 61.0184 38.7998C59.9149 39.3603 60.6186 39.8047 61.1703 40.5694C63.3774 33.0104 62.7616 25.9798 59.695 19.1374H59.6829ZM6.31386 14.2249C-1.87463 25.3232 -0.375268 42.3671 7.8652 50.2785C9.57246 49.2815 9.56846 49.2335 9.25659 47.3557C8.9927 45.7542 8.85677 44.1527 8.58888 42.5513C8.37298 41.238 8.35297 39.7847 7.74923 38.6596C5.83805 35.1243 3.69099 31.7132 1.61588 28.2219C2.54748 27.4212 3.07525 26.6204 2.4915 25.4914C2.34756 25.2191 2.51547 24.7467 2.62343 24.3903C3.13521 22.6928 3.607 20.9792 4.22274 19.3256C4.58078 18.3108 5.10655 17.3634 5.77808 16.523C6.07635 16.2306 6.2852 15.8591 6.38009 15.452C6.47499 15.045 6.45201 14.6193 6.31386 14.2249ZM19.976 58.8624C19.4842 56.5923 19.1763 56.1159 17.7169 55.2791C17.3451 55.0629 16.9733 54.8467 16.6134 54.6105C14.3264 53.1211 12.0394 51.6237 9.66843 50.0703L8.34897 51.1232C11.6755 54.5304 15.4939 56.9567 19.976 58.8624ZM31.2072 27.1809C31.1032 26.7806 31.0233 26.4122 30.8833 26.0439C29.5106 22.4298 28.1352 18.8185 26.7571 15.2098C26.4012 14.2809 25.8615 13.3721 26.6731 12.4072C26.7331 12.3351 26.6251 12.1189 26.5532 11.7786L25.0538 12.8916C25.9654 15.2939 26.8291 17.604 27.7047 19.8981C28.5443 22.1002 29.3879 24.3023 30.2636 26.4963C30.3955 26.8206 30.3915 27.4412 31.2072 27.1809ZM51.4185 51.6317L53.3497 49.6699C52.8499 49.2175 52.4061 48.5729 52.1502 48.6409C51.1986 48.9092 50.8827 48.2406 50.4749 47.7201C48.9716 45.8303 47.5082 43.9085 46.0208 42.0067C45.7729 41.6905 45.469 41.4142 45.1812 41.1099C44.6054 41.8266 45.0892 42.231 45.4171 42.6233C46.8964 44.393 48.3998 46.1386 49.8871 47.9002C50.239 48.3206 50.5549 48.7691 50.9627 49.2975L49.8752 49.5858L51.4185 51.6317ZM42.3784 46.5109C42.1105 46.9113 41.5787 47.0955 42.2224 47.5639C42.7243 47.9484 43.1616 48.4106 43.5179 48.9332C44.5015 50.3305 45.4211 51.7678 46.3846 53.1812C46.6445 53.5815 46.9564 53.9138 47.2923 54.3382L48.6197 53.4134C46.7525 50.863 45.0492 48.2846 42.3784 46.5109ZM20.4518 53.5815C17.521 49.4937 13.075 47.1035 9.83635 43.308C9.41253 44.1968 9.9443 44.5972 10.3641 44.9735C13.3788 47.656 16.4055 50.3252 19.4442 52.981C19.7612 53.2113 20.0984 53.4123 20.4518 53.5815ZM22.207 27.5573C22.4189 26.9807 22.5789 26.7565 22.5349 26.6284C21.7352 23.8939 20.9156 21.1593 20.044 18.4408C19.972 18.2206 19.4802 18.1365 19.1843 17.9884C19.045 18.2832 18.9287 18.5884 18.8365 18.9012C18.8045 19.0253 18.9564 19.1895 19.0164 19.3416C19.7494 21.1914 20.4811 23.0411 21.2115 24.8908C21.5193 25.6675 21.7952 26.4402 22.215 27.5693L22.207 27.5573ZM27.5647 11.6545C28.3284 15.3139 29.9317 18.617 31.531 21.924C31.2835 20.9733 30.9818 20.0376 30.6274 19.1214C30.4715 18.677 30.1436 18.1085 30.2916 17.7762C30.5994 17.0915 30.2516 16.6271 30.0357 16.1106C29.5839 15.0336 28.8042 14.0047 28.6843 12.9076C28.5963 12.0268 28.2364 11.8587 27.5727 11.6665L27.5647 11.6545ZM24.642 24.9789C24.8259 24.5305 25.2377 24.034 25.1538 23.6416C24.7779 21.912 24.2622 20.2144 23.7864 18.5089C23.6064 17.8562 23.1706 17.8963 22.5869 18.1085C22.8028 20.5267 23.6504 22.7048 24.642 24.9789ZM58.0636 19.5698C58.9593 18.2766 59.0472 17.1396 58.1596 15.9345C57.5239 15.0737 57.0161 14.1208 56.4123 13.2359C56.2181 13.0343 55.9926 12.8653 55.7446 12.7355L55.5047 12.8956C56.3364 15.0697 57.168 17.2357 58.0636 19.5779V19.5698ZM19.6082 54.6625C18.6006 53.7217 17.609 52.7688 16.5855 51.8319C15.358 50.6988 14.1305 49.5698 12.887 48.4528C12.5512 48.1485 12.1713 47.7921 11.6196 48.3807C11.9594 48.705 12.2553 48.9973 12.5632 49.2775C14.5117 51.0552 16.4575 52.8328 18.4007 54.6105C18.7565 54.9468 19.0604 55.4072 19.6082 54.6705V54.6625ZM3.45107 23.994L3.78694 24.1821L6.05796 20.3386C6.82563 19.0253 6.83763 18.673 6.05796 16.7552C5.12236 19.3216 4.28672 21.6638 3.45107 24.002V23.994ZM14.4544 45.2898C13.1949 44.0246 11.9554 42.7114 10.628 41.4943C10.3321 41.222 9.74038 41.2741 9.15663 41.1499C9.30057 41.6144 9.34456 42.0668 9.46451 42.0868C10.5041 42.271 10.8119 43.2359 11.4397 43.8485C12.0674 44.461 12.5952 44.9535 13.1909 45.486C13.6147 45.8623 14.0545 45.9464 14.4544 45.2898ZM16.1936 43.1999L15.8578 43.5202L22.7948 51.6037L23.1626 50.907C21.9831 49.5618 20.8756 48.2526 19.7201 46.9954C18.5646 45.7382 17.581 44.2568 16.1976 43.1999H16.1936ZM24.8139 14.6132L24.4861 14.7213C24.738 15.406 24.9978 16.0906 25.2417 16.7832C26.2973 19.766 27.3328 22.7608 28.4403 25.7356C28.6443 26.3001 28.6882 27.0608 29.6918 27.4252L24.8139 14.6132ZM48.8396 42.0228L52.7299 47.648L53.0338 47.5359C52.9684 47.056 52.8463 46.5856 52.67 46.1346C52.0023 44.9014 51.2466 43.7324 50.5509 42.5032C50.199 41.8706 49.6912 41.7625 48.8396 42.0228ZM14.8542 45.7983C14.8871 46.2058 15.0087 46.6012 15.2104 46.9567C15.412 47.3122 15.6889 47.6192 16.0217 47.8562C17.7729 49.3536 19.6961 50.6868 20.8716 52.7648C20.9316 52.8689 21.2714 52.8168 21.8912 52.8729C19.4962 50.2945 17.529 47.8562 14.8542 45.7983ZM46.1887 48.741L46.3567 48.6129C45.505 47.0394 44.6494 45.47 43.6658 43.6643L42.6383 45.494L46.1887 48.741ZM19.8001 45.7422C17.529 41.6704 16.6774 40.9378 14.5063 40.8657C14.5588 41.1854 14.712 41.48 14.9437 41.7062C15.1754 41.9324 15.4733 42.0784 15.7938 42.1229C16.7774 42.263 17.2492 42.9236 17.8129 43.5402C18.4527 44.2568 19.1244 44.9975 19.7841 45.7302L19.8001 45.7422ZM53.7855 41.6304C53.0898 42.7755 53.3577 46.4349 54.2813 48.3447C54.6699 46.0947 54.4941 43.7834 53.7695 41.6184L53.7855 41.6304ZM27.6487 27.5853L28.1405 27.3811L25.1698 19.1815C25.6495 22.1042 26.2053 24.9789 27.6487 27.5853ZM52.7779 13.8485C53.1777 16.0426 52.8619 18.3767 54.2133 20.3706C54.3155 19.929 54.3264 19.4712 54.2453 19.0253C54.1573 18.3407 53.9134 17.64 53.9894 16.9714C54.1373 15.6862 53.3976 14.8134 52.7779 13.8485ZM21.4594 18.1245L21.1395 18.1725C21.0995 18.3527 20.9876 18.5729 21.0355 18.713C21.8352 21.2728 22.6349 23.8245 23.4345 26.3682C23.4345 26.3682 23.6104 26.3321 23.7943 26.2921C23.0187 23.5482 22.2404 20.8257 21.4594 18.1245ZM57.3719 22.7088C57.1338 21.0055 56.3262 19.4332 55.0809 18.2486C55.1289 19.1214 55.3448 19.9462 55.4288 20.783C55.5327 21.84 56.0685 22.4245 57.3719 22.7088ZM60.0108 38.3233L61.3382 32.2256C59.9308 34.0313 58.7314 35.869 60.0108 38.3313V38.3233ZM41.4228 49.0893C42.2904 49.2495 42.2225 50.4866 43.4539 50.2905C42.9022 49.4897 42.4223 48.8251 41.9625 48.1725L40.4112 47.9803C40.1193 49.1414 40.2313 49.3736 41.6347 50.3825C41.5547 49.8941 41.4908 49.5177 41.4228 49.0974V49.0893ZM15.254 44.7813C14.8862 43.384 14.4024 42.1068 12.979 41.5543C12.4872 41.3621 12.0554 41.202 11.9794 40.4893C11.9274 40.0009 11.3877 40.0609 10.8119 40.4533L15.254 44.7813ZM54.1973 13.28C54.1973 15.1778 55.2209 16.5791 56.3764 17.9123C55.8966 16.2427 55.5527 14.5211 54.1773 13.28H54.1973ZM45.9928 55.4753C46.2047 53.9459 44.5774 51.6317 43.302 51.3915C44.1776 52.7207 44.9733 53.9339 45.9928 55.4753ZM22.191 15.1818L20.016 16.8753C20.8636 17.568 21.3234 16.9914 21.7592 16.511C22.379 17.2397 22.379 17.2397 23.3185 17.3117C22.9347 16.571 22.5989 15.9545 22.191 15.1818ZM49.5913 45.1217L49.7952 44.9215C48.8836 43.5602 47.976 42.1949 47.0564 40.8417C46.7685 40.4213 46.4286 40.3892 46.0048 40.7616L49.5913 45.1217ZM51.5225 13.8245C51.0067 15.1177 51.4265 17.2957 52.458 18.1725C52.1542 16.6191 52.2621 15.1978 51.5225 13.8245ZM26.6731 27.7214C26.2733 26.7165 25.9854 26.0239 25.6655 25.2271C24.9578 25.9037 24.59 26.5884 25.0498 27.297C25.2497 27.5853 25.9294 27.5453 26.6731 27.7214ZM10.9998 49.0893L10.724 49.4056C11.5236 50.5027 12.6911 51.1353 13.8026 51.8359L14.0146 51.5677L10.9998 49.0893ZM49.7832 13.0838L50.143 13.1238C50.1467 12.7278 50.2059 12.3343 50.319 11.9547C50.5602 11.5738 50.8491 11.2253 51.1786 10.9178L49.7832 10.3733V13.0838ZM55.5847 22.977C55.3048 24.1261 55.9845 24.6346 56.7282 25.4313C56.8641 24.6586 56.9481 24.1541 57.0441 23.6136L55.5847 22.977ZM12.0034 47.612L10.2882 46.0585L10.0083 46.2187C10.0682 46.7592 10.1242 47.2957 10.1962 47.9523L12.0034 47.612ZM32.2627 23.2172L31.9948 23.3494L33.0424 25.5234L33.3982 25.3432C33.0091 24.6466 32.6239 23.9433 32.2427 23.2333L32.2627 23.2172ZM49.8552 16.4389C50.9467 15.5421 50.3749 14.9135 49.8552 14.2809V16.4389ZM52.3381 41.1019C51.9383 40.2291 51.5824 40.181 50.263 40.8817C50.8827 41.0098 51.3865 41.1299 51.8983 41.21C52.0467 41.2063 52.1931 41.1751 52.3301 41.1179L52.3381 41.1019ZM51.2386 41.9026C51.5584 42.4552 51.7304 42.7835 51.9423 43.1038C51.9982 43.1878 52.1862 43.1758 52.4061 43.2279C52.3741 42.7274 52.3421 42.319 52.3101 41.8346L51.2386 41.9026ZM22.7428 14.6372L24.0502 16.0105C23.7864 15.2618 23.6224 14.8094 23.4225 14.2169L22.7428 14.6372ZM41.4788 52.4605C40.983 51.4155 40.983 51.4155 40.1833 51.5356L41.4788 52.4605ZM31.599 24.5785L31.3631 24.6626L31.7629 25.7876L32.0148 25.7036C31.8669 25.3352 31.7349 24.9789 31.599 24.5785ZM47.4962 48.0924L47.6601 47.9603L47.2603 47.4839L47.1403 47.5839L47.4962 48.0924ZM47.86 40.6255C47.86 40.7256 47.888 40.8297 47.904 40.9297C48.2039 40.9297 48.5077 40.9978 48.8076 40.9898C49.0028 40.9626 49.1945 40.9143 49.3794 40.8457C49.3794 40.7736 49.3794 40.7015 49.3794 40.6255H47.86Z" fill="#84B140"/>
</svg>
