<svg width="25" height="25" viewBox="0 0 25 25" fill="none" xmlns="http://www.w3.org/2000/svg">
<circle cx="12.5" cy="12.5" r="12.5" fill="white"/>
<path d="M12.5 4C12.3674 4 12.2402 4.05268 12.1464 4.14645C12.0527 4.24021 12 4.36739 12 4.5V7.1C12 8.477 12.927 9.636 14.19 9.99C13.97 12.73 13.178 14.775 12.529 16.036C12.713 16.252 12.886 16.413 13.021 16.526C13.54 16.96 14 17.667 14 18.549C14.0007 19.0711 13.8338 19.5797 13.524 20H19C19.3978 20 19.7794 19.842 20.0607 19.5607C20.342 19.2794 20.5 18.8978 20.5 18.5V18.193C20.5 17.845 20.381 17.524 20.198 17.261C19.658 16.484 18.129 13.971 17.809 9.989C18.4394 9.81246 18.9947 9.43457 19.3903 8.91295C19.7859 8.39134 20 7.75465 20 7.1V4.5C20 4.36739 19.9473 4.24021 19.8536 4.14645C19.7598 4.05268 19.6326 4 19.5 4H18.75C18.5511 4 18.3603 4.07902 18.2197 4.21967C18.079 4.36032 18 4.55109 18 4.75V5.5C18.0001 5.56566 17.9873 5.6307 17.9623 5.69142C17.9373 5.75213 17.9006 5.80732 17.8543 5.85385C17.7607 5.9478 17.6336 6.00073 17.501 6.001C17.3684 6.00127 17.2411 5.94884 17.1472 5.85526C17.0532 5.76168 17.0003 5.63461 17 5.502V5.5L16.996 4.746C16.9949 4.54778 16.9155 4.35804 16.7749 4.21825C16.6344 4.07847 16.4442 4 16.246 4H15.754C15.5558 4 15.3656 4.07847 15.2251 4.21825C15.0845 4.35804 15.0051 4.54778 15.004 4.746L15 5.503C14.9996 5.63561 14.9465 5.76263 14.8525 5.85611C14.7584 5.9496 14.6311 6.0019 14.4985 6.0015C14.3659 6.0011 14.2389 5.94804 14.1454 5.85399C14.0519 5.75994 13.9996 5.63261 14 5.5V4.75C14 4.55109 13.921 4.36032 13.7803 4.21967C13.6397 4.07902 13.4489 4 13.25 4H12.5ZM8.5 7C7.92088 7.00001 7.35414 7.16765 6.86819 7.48266C6.38224 7.79768 5.99786 8.24662 5.76144 8.77529C5.52502 9.30395 5.44667 9.88975 5.53585 10.462C5.62503 11.0342 5.87792 11.5683 6.264 12H6C5.73478 12 5.48043 12.1054 5.29289 12.2929C5.10536 12.4804 5 12.7348 5 13C5 13.2652 5.10536 13.5196 5.29289 13.7071C5.48043 13.8946 5.73478 14 6 14H6.52C6.148 15.798 5.167 16.836 4.62 17.293C4.274 17.583 4 18.029 4 18.549C4 19.35 4.65 20 5.451 20H11.55C12.35 20 13 19.35 13 18.549C13 18.029 12.726 17.583 12.38 17.293C11.833 16.836 10.852 15.798 10.48 14H11C11.2652 14 11.5196 13.8946 11.7071 13.7071C11.8946 13.5196 12 13.2652 12 13C12 12.7348 11.8946 12.4804 11.7071 12.2929C11.5196 12.1054 11.2652 12 11 12H10.736C11.1221 11.5683 11.375 11.0342 11.4642 10.462C11.5533 9.88975 11.475 9.30395 11.2386 8.77529C11.0021 8.24662 10.6178 7.79768 10.1318 7.48266C9.64586 7.16765 9.07912 7.00001 8.5 7Z" fill="#95C64A"/>
</svg>
