<svg width="25" height="25" viewBox="0 0 25 25" fill="none" xmlns="http://www.w3.org/2000/svg">
<circle cx="12.5" cy="12.5" r="12.5" fill="white"/>
<path d="M19.2763 5.72356C18.3893 4.82949 17.3337 4.12027 16.1707 3.63697C15.0077 3.15366 13.7603 2.90588 12.5009 2.90797C11.2412 2.906 9.99359 3.15383 8.83028 3.63711C7.66697 4.1204 6.61103 4.82956 5.72355 5.72356C1.98701 9.45914 1.98701 15.5398 5.72355 19.2763C6.61105 20.1705 7.66712 20.8799 8.83063 21.3632C9.99413 21.8465 11.242 22.0941 12.5018 22.0919C13.7612 22.0941 15.0085 21.8465 16.1715 21.3633C17.3345 20.8802 18.3902 20.1712 19.2773 19.2773C23.0138 15.5417 23.0138 9.46106 19.2763 5.72356ZM12.6734 4.83326H12.3293C12.3878 4.83231 12.4434 4.82464 12.5018 4.82464C12.5603 4.82464 12.6149 4.83231 12.6734 4.83326ZM18.4828 17.2916H16.3333L15.1277 19.7028C14.2867 20.0135 13.3974 20.1734 12.5009 20.1752C11.6027 20.1736 10.7118 20.0133 9.8693 19.7018L8.66659 17.3012H6.52472C5.73451 16.3188 5.20012 15.1558 4.96934 13.9163L6.74992 11.5416L5.58459 9.20997C5.95643 8.41895 6.46184 7.69795 7.07863 7.07864C7.94188 6.21236 8.99999 5.56534 10.1645 5.19168L12.4999 6.74993L14.8363 5.19264C16.0005 5.56657 17.0585 6.21318 17.9222 7.07864C18.5383 7.69721 19.0434 8.41721 19.4153 9.2071L18.2499 11.5416L20.0305 13.9163C19.8008 15.1518 19.2691 16.3113 18.4828 17.2916Z" fill="#95C64A"/>
<path d="M9.14575 11.5417L10.5833 15.375H14.4166L15.8541 11.5417L12.4999 9.14587L9.14575 11.5417Z" fill="#95C64A"/>
</svg>
