<svg width="94" height="109" viewBox="0 0 94 109" fill="none" xmlns="http://www.w3.org/2000/svg">
<path d="M18.5962 60.6185C19.3846 59.3941 19.8441 58.5655 20.4178 57.8376C20.9277 57.1935 21.5919 56.6635 22.1554 56.0529C23.608 54.4595 23.5375 53.4095 21.8032 52.0845C20.8404 51.3565 19.7234 50.8097 18.764 50.0986C18.0869 49.6362 17.5021 49.0514 17.0397 48.3743C16.2715 47.1298 16.7043 46.0261 18.0796 45.4626C18.7361 45.216 19.4086 45.0142 20.0924 44.8588C20.8874 44.6407 21.7227 44.5166 22.4942 44.2214C24.3896 43.4934 24.7317 42.6951 23.9568 40.8266C23.6035 40.0065 23.1839 39.2167 22.7022 38.4649C22.0481 37.3948 21.4308 36.2744 22.1588 35.0835C22.9404 33.792 24.3057 33.8759 25.6006 34.0637C26.674 34.218 27.7408 34.4797 28.8142 34.5334C30.5452 34.6139 31.5516 33.5606 31.4644 31.8162C31.4241 30.991 31.2128 30.1758 31.1356 29.3539C31.0092 28.5352 30.971 27.7052 31.0216 26.8783C31.1993 25.3184 32.4271 24.6408 33.7689 25.4123C34.7497 26.006 35.6572 26.7131 36.4727 27.519C38.9517 29.8772 39.8877 29.78 41.8266 26.9084C42.4061 26.0685 43.0534 25.2776 43.7622 24.5435C45.0738 23.1715 46.58 23.3358 47.5596 24.9393C47.9109 25.6179 48.1984 26.3276 48.4183 27.0594C48.6196 27.5961 48.7639 28.1563 48.9551 28.6964C49.5388 30.3402 50.1929 30.5649 51.632 29.515C52.4539 28.9145 53.1751 28.1798 53.9567 27.519C54.3388 27.1812 54.7458 26.8728 55.1745 26.5965C56.4794 25.8149 57.7742 26.1436 58.2607 27.576C58.545 28.5422 58.616 29.5586 58.4686 30.5549C58.0963 33.7719 58.4988 34.2348 61.8131 34.1006C62.9604 34.0537 64.111 34.104 65.2449 34.0235C66.2814 33.9665 67.2106 34.1711 67.7306 35.107C67.9918 35.5881 68.1123 36.1329 68.0785 36.6792C68.0447 37.2256 67.8579 37.7514 67.5394 38.1966C67.0966 38.8943 66.4894 39.4814 65.9996 40.1523C65.5702 40.7427 65.2046 41.37 64.6813 42.1885C66.3619 42.9567 67.8379 43.5404 69.2234 44.2885C70.1723 44.7857 71.039 45.4261 71.793 46.1871C72.0293 46.4072 72.216 46.6752 72.3407 46.9731C72.4653 47.271 72.5251 47.5921 72.5159 47.915C72.5066 48.2378 72.4287 48.555 72.2873 48.8453C72.1459 49.1356 71.9442 49.3925 71.6957 49.5987C70.7998 50.4113 69.8382 51.1485 68.8208 51.8027C67.3448 52.8024 67.1335 53.7115 68.2405 55.1271C68.794 55.8282 69.4817 56.4152 70.0788 57.0794C71.6353 58.8037 71.1858 60.8701 68.9919 61.5813C67.7239 61.9838 66.3686 62.1113 65.0671 62.4065C62.7491 62.9332 62.4572 63.4196 62.9772 65.7577C63.2556 67.0023 63.5709 68.1965 63.0677 69.5048C62.9204 70.0324 62.595 70.4927 62.1468 70.8076C61.6985 71.1225 61.1552 71.2726 60.6089 71.2324C59.4642 71.1698 58.324 71.0421 57.1939 70.8499C55.1912 70.5849 54.8558 70.7929 54.3459 72.6983C54.0138 73.9429 53.6548 75.1538 52.5981 76.0294C51.4576 76.9754 50.5082 77.1465 49.2872 76.3548C48.3389 75.714 47.4416 75.0007 46.6035 74.2213C44.6847 72.4903 43.6784 72.5239 41.9776 74.4662C41.5111 75.0696 40.9985 75.636 40.4445 76.1602C39.2 77.1767 38.0963 77.0257 37.2409 75.6403C36.8017 74.8691 36.4902 74.0319 36.3184 73.1612C35.7247 70.7023 35.0269 70.1992 32.5445 70.6889C31.9239 70.8131 31.3302 71.0646 30.7163 71.2223C29.9253 71.4682 29.1151 71.6478 28.2943 71.759C26.9055 71.8731 26.2916 71.1854 26.456 69.7731C26.5613 69.0795 26.708 68.3928 26.8954 67.7168C27.043 67.0928 27.2342 66.4856 27.3919 65.8785C28.0125 63.1445 27.2879 62.1113 24.4801 61.7054C23.675 61.5712 22.8196 61.588 22.0078 61.4337C21.0048 61.2894 20.0521 60.9942 18.5962 60.6185ZM57.3885 27.784C56.0768 27.4251 55.2986 27.9752 54.5572 28.6025C53.8276 29.3173 53.0581 29.9904 52.2526 30.6186C50.2164 31.9839 48.6431 31.3499 47.9487 28.9983C47.68 27.8843 47.3094 26.7973 46.8417 25.7511C46.0869 24.2852 44.9866 24.2516 44.044 25.57C43.3999 26.4422 42.7827 27.3345 42.152 28.2134C40.4311 30.6052 38.5895 30.783 36.3755 28.7769C35.8565 28.2127 35.2995 27.6848 34.7082 27.1969C34.0541 26.7642 33.1181 26.1034 32.5613 26.2979C31.5348 26.6535 31.9374 27.8142 32.0044 28.6662C32.095 29.8102 32.4036 30.9507 32.4104 32.0778C32.4439 34.3657 30.8941 35.741 28.5962 35.5431C27.7072 35.466 26.8317 35.2613 25.9461 35.1473C25.3224 35.0328 24.6873 34.9922 24.0541 35.0265C23.0243 35.1372 22.6385 35.8182 23.0008 36.8044C23.2357 37.3283 23.5011 37.838 23.7958 38.3308C24.3018 39.2145 24.7479 40.1312 25.1309 41.0748C25.7046 42.7219 25.2316 43.953 23.6516 44.7346C22.5948 45.1737 21.5072 45.5348 20.3976 45.8148C19.5154 46.0999 18.6331 46.3985 17.8448 46.6568C17.7282 47.1669 17.7885 47.7014 18.0159 48.1726C18.2433 48.6439 18.6242 49.0238 19.0961 49.2499C20.136 49.8671 21.2229 50.4173 22.2192 51.0915C24.4902 52.6313 24.7686 54.4797 23.0545 56.583C22.407 57.3713 21.6221 58.0489 20.9478 58.8171C20.6626 59.217 20.4134 59.6413 20.2031 60.0851C20.9511 60.2495 21.4879 60.4105 22.0347 60.4877C23.1115 60.6386 24.2185 60.6588 25.2651 60.8936C27.8347 61.4504 28.8109 62.8761 28.4285 65.4592C28.2977 66.3414 27.979 67.1901 27.8247 68.0757C27.6704 68.9613 27.61 69.7463 27.459 70.9774C28.3614 70.538 28.8545 70.2864 29.3476 70.0549C30.5221 69.4265 31.7395 68.8817 32.9907 68.4246C35.0504 67.8006 36.4761 68.7634 36.986 70.8567C37.1336 71.4739 37.1839 72.1213 37.3583 72.7319C37.7273 74.02 38.4653 74.3689 39.673 73.7718C40.3486 73.4164 40.986 72.9926 41.575 72.5071C43.8393 70.746 45.2282 70.7929 47.2912 72.7352C47.4724 72.9163 47.6535 73.0975 47.8347 73.2786C50.0822 75.4054 50.6961 75.3149 52.2224 72.6279C53.6783 70.0583 54.9933 69.4343 57.8883 69.914C58.6985 70.0857 59.5204 70.1967 60.3472 70.2461C61.5246 70.2629 62.1318 69.6624 62.1587 68.4883C62.1651 67.786 62.0748 67.0862 61.8903 66.4085C60.9476 62.9097 62.8899 61.1955 65.9594 61.0848C66.7253 61.0667 67.486 60.9528 68.2237 60.746C69.4381 60.3904 69.6964 59.6155 68.9785 58.5823C68.4686 57.851 67.8883 57.1633 67.3113 56.479C65.7044 54.5769 65.6675 53.4263 67.3113 51.6283C68.217 50.642 69.2603 49.7799 70.1929 48.8205C71.5615 47.4518 71.3804 46.8078 69.5454 46.1134C69.1295 45.959 68.69 45.8819 68.2606 45.7611C67.4656 45.5364 66.6739 45.2881 65.8722 45.0835C63.4971 44.473 62.5411 40.2429 64.8289 38.8742C65.096 38.7005 65.3357 38.488 65.5401 38.2435C66.1171 37.6062 67.1402 37.0795 66.5901 36.0262C66.0399 34.9728 65.0134 35.1204 64.0372 35.258C62.843 35.4056 61.6186 35.6639 60.4311 35.7511C58.6665 35.8584 57.5159 34.8487 57.2979 33.101C57.2679 32.3388 57.2915 31.5754 57.3683 30.8165C57.3851 29.7464 57.3851 28.7535 57.3885 27.784ZM40.2231 74.9056L37.7944 75.0935C38.7874 75.9925 39.3174 75.8516 40.2231 74.9056Z" fill="#84B140"/>
<path d="M95.2877 38.4247C91.8861 41.0614 88.7731 43.9396 86.1834 47.7303C88.8234 50.8735 92.3088 53.2251 95.2877 56.4052C94.0733 56.5327 92.9428 56.8111 91.8325 56.7608C86.8613 56.593 81.8844 56.7723 76.9382 57.2975C75.5485 57.3556 74.1589 57.1833 72.8255 56.7876C71.3562 56.4186 70.9939 55.5129 71.7855 54.1912C72.4047 53.2349 73.1443 52.3623 73.9862 51.5947C74.7007 50.8802 75.6098 50.367 76.3981 49.7262C77.9982 48.4347 78.1894 47.0627 76.643 45.7108C75.0965 44.3589 73.2381 43.2586 71.5272 42.0376C70.9889 41.6759 70.5169 41.2243 70.1318 40.7025C74.2948 39.847 78.4679 39.7129 82.6007 39.2566C86.7335 38.8004 90.9234 38.3811 95.0864 37.9484C95.13 38.0993 95.2005 38.257 95.2877 38.4247ZM84.8852 47.9215C86.8241 44.681 89.4809 42.3059 92.2887 39.4512C90.9469 39.4512 90.0948 39.3506 89.2461 39.4344C83.7826 39.9779 78.3214 40.5548 72.8624 41.1654C72.7349 41.1788 72.6175 41.3432 72.3994 41.5075C72.8121 41.7658 73.1442 41.9638 73.4494 42.1751C74.7473 42.98 75.9952 43.8628 77.1864 44.8185C79.1891 46.5931 79.1421 48.6192 77.1562 50.3905C76.3478 51.1117 75.4219 51.6954 74.5732 52.3764C73.5433 53.2049 72.5034 54.0436 72.4733 55.8181C73.6037 55.9355 74.6638 56.2039 75.7037 56.1368C79.8399 55.8651 83.9694 55.4928 88.1156 55.1305C89.3501 55.0231 90.5678 54.899 92.1713 54.738C90.6449 53.3928 89.4272 52.3763 88.2766 51.2928C87.126 50.2093 86.0089 49.0453 84.8717 47.9081L84.8852 47.9215Z" fill="#84B140"/>
<path d="M51.3366 92.527C49.874 93.9896 48.5422 95.2677 47.2675 96.5961C45.9927 97.9245 44.4463 98.847 43.6982 100.836C42.8327 99.6152 42.8965 98.3975 42.8663 97.2469C42.8327 95.9788 43.0575 94.6941 43.0005 93.4294C42.8629 90.313 42.5946 87.1999 42.4436 84.0835C42.343 82.0507 42.2725 80.0077 42.3597 77.9615C42.4168 76.368 42.9434 75.7609 44.3087 75.2141C45.4325 77.2972 47.1467 78.8571 49.0488 80.2493C51.1554 81.7991 52.3396 81.6548 53.8122 79.5113C54.6308 78.317 55.3755 77.049 56.1604 75.8212C56.459 75.3617 56.8112 74.9356 57.1165 74.523C58.1229 74.8585 58.1497 75.6233 58.2202 76.2976C58.5824 79.2027 58.9548 82.1111 59.2232 85.0228C59.5955 89.0181 59.8605 93.0402 60.1993 97.0221C60.319 97.9265 60.3336 98.8416 60.2429 99.7494C56.5563 98.1694 54.245 95.1738 51.3366 92.527ZM58.9816 97.9379C59.4446 95.2945 57.8008 78.2869 56.9387 76.7538C56.043 78.0118 55.2346 79.3033 54.2785 80.474C52.3832 82.792 50.716 82.9162 48.3745 80.9705C47.2473 80.0379 46.1907 79.0148 45.087 78.052C44.76 77.8005 44.4183 77.5687 44.0639 77.3576C43.9565 77.6394 43.8727 77.7568 43.876 77.8742C44.0661 83.6105 44.2663 89.348 44.4765 95.0865C44.5945 95.9373 44.7795 96.7775 45.03 97.5991L51.4338 91.1952C54.1376 93.4227 56.0162 96.2673 58.9816 97.9379Z" fill="#84B140"/>
<path d="M33.5265 42.0173C34.0364 41.3531 34.4591 40.7224 34.969 40.1723C35.5 39.6583 36.0564 39.1712 36.6362 38.713C39.3333 40.4306 41.6412 42.9197 44.241 45.0431C46.7502 47.105 49.2717 49.1502 51.8056 51.1786C52.1116 51.3693 52.4423 51.5171 52.7884 51.618C53.7009 50.8264 54.4993 50.0146 55.405 49.3571C55.7607 49.1225 56.16 48.9617 56.579 48.8843C56.998 48.8069 57.4283 48.8144 57.8444 48.9064C58.2605 48.9984 58.6539 49.1729 59.0012 49.4198C59.3486 49.6666 59.6429 49.9806 59.8666 50.3433C59.9843 50.6872 59.976 51.0617 59.8431 51.4C59.7173 51.6991 59.5245 51.9654 59.2795 52.1783L48.6154 62.8424C47.5654 62.2889 46.4852 61.7186 45.3279 61.1115C45.7103 58.6023 48.0954 57.673 49.4372 55.6268C45.5291 51.3765 40.5644 48.1696 36.4483 43.926C36.5356 44.5097 36.6395 45.1169 36.7435 45.7106C37.0383 47.4939 36.6476 49.3226 35.6499 50.8297C35.4956 51.0847 35.0965 51.182 34.4054 51.5979C35.0562 49.6053 35.9753 48.1494 35.8009 46.3648C35.6265 44.5801 34.761 43.2652 33.5265 42.0173ZM36.6429 40.9136C36.7972 41.1015 36.928 41.2994 37.1125 41.4839C39.075 43.4933 41.024 45.5228 43.0199 47.5053C45.1434 49.6288 47.3205 51.7053 49.4875 53.7851C49.9505 54.248 50.457 54.7546 51.5741 54.3822C46.4282 49.8535 42.1343 44.7948 36.6295 40.9002L36.6429 40.9136ZM48.2128 61.6012C50.6549 59.8971 54.0397 56.3178 54.3215 55.1907C52.0236 56.2474 51.9733 56.3111 50.1148 59.3436C49.9706 59.5818 49.5982 59.6791 49.3332 59.8435C49.2393 59.7495 49.1253 59.6757 49.0179 59.5952L50.1316 57.0524L49.9136 56.9149L46.72 60.1085L48.2128 61.6012ZM57.9679 51.2289L55.0964 52.7184C55.6331 52.7922 56.1128 52.4466 56.4986 52.5305C57.9142 52.8391 58.3067 51.7958 58.9273 51.0008C57.6526 49.5919 57.5955 49.5818 56.2068 50.293C56.7502 50.5748 57.2098 50.8062 57.9713 51.2256L57.9679 51.2289ZM50.2188 51.4839C50.722 52.1615 51.1111 53.0471 52.3322 53.396C52.0001 52.0776 51.0206 51.8965 50.2222 51.4805L50.2188 51.4839Z" fill="#84B140"/>
</svg>
