<svg width="60" height="75" viewBox="0 0 60 75" fill="none" xmlns="http://www.w3.org/2000/svg">
<path d="M7.75124 43.0306C3.19504 42.8939 -1.05739 42.5243 -5.14785 44.4126C-5.75028 43.3293 -5.3048 42.5345 -4.91499 41.7751C-2.38288 37.0801 1.20855 33.0397 5.57437 29.9746C7.66391 28.5389 10.083 27.6559 12.6061 27.4079C13.5477 27.3016 14.4894 27.1599 15.4361 27.0333C19.5822 18.8878 25.8394 12.8585 33.7823 8.60602C38.9659 5.73134 44.625 3.81411 50.4884 2.94622C52.7614 2.64247 55.1205 2.4096 56.8366 0.516251C57.3429 -0.0355546 58.158 -0.222878 58.6592 0.344115C59.0388 0.774422 59.3527 1.74136 59.1249 2.15648C57.191 5.70018 57.7479 9.59319 57.3277 13.3495C56.757 17.8153 55.4447 22.1544 53.4448 26.1879C50.4929 32.3538 46.3158 37.8537 41.1684 42.3522C40.0952 43.2989 39.027 44.2507 37.9234 45.1619C37.589 45.388 37.3372 45.7166 37.2057 46.0983C37.0742 46.4799 37.0703 46.8939 37.1944 47.278C38.0398 50.9989 37.1539 54.4464 35.1188 57.5902C34.0136 59.3099 32.7923 60.9522 31.4637 62.5058C29.5551 64.7231 27.4998 66.819 25.49 68.9503C25.0805 69.3775 24.5806 69.7079 24.027 69.9172C24.9686 65.0117 23.87 60.41 22.8727 55.631C22.4142 55.8366 21.9695 56.0717 21.5413 56.3347C19.486 57.818 17.5217 57.4332 15.4664 56.2486C12.5251 54.5426 10.2065 52.1987 8.04484 49.627C6.52611 47.8298 5.74146 46.1946 7.37662 44.119C7.54985 43.7747 7.67585 43.4086 7.75124 43.0306ZM57.8694 1.05287C56.0368 2.91585 53.8802 3.58407 51.5464 3.82201C47.3851 4.2675 43.4465 5.58374 39.5788 7.08729C32.0121 9.93711 25.3782 14.8192 20.4073 21.1963C19.0709 22.9125 17.8103 24.6944 16.6105 26.5068C15.7398 27.823 14.5298 28.3191 13.0668 28.4356C10.5368 28.6192 8.10603 29.4949 6.04013 30.9668C1.85856 33.9233 -1.35608 37.7606 -4.0088 42.1042C-4.09992 42.251 -4.04423 42.4838 -4.06448 42.7673C0.390471 41.8662 4.79984 41.4157 9.46235 42.4687C8.8346 43.6938 8.3132 44.7873 7.71583 45.8352C7.31083 46.549 7.4728 47.0552 7.93855 47.6779C10.247 50.7458 12.8238 53.4947 16.165 55.5095C18.4532 56.8865 18.3722 56.9776 20.7769 55.626C21.6173 55.1551 22.2956 54.2135 23.5714 54.578C24.8802 58.7319 25.5243 63.0665 25.4799 67.4214C27.7631 64.9611 29.7728 62.9614 31.5953 60.7998C34.7391 57.0687 37.1336 53.0036 36.3945 47.8298C36.1262 45.9567 36.6426 44.4987 38.3081 43.5166C38.4218 43.4403 38.527 43.352 38.622 43.2534C43.3655 39.2034 47.5977 34.7029 50.6908 29.2405C53.784 23.7782 56.0975 17.9614 56.457 11.5625C56.6443 8.24154 56.543 4.88006 58.1174 1.79703C58.1529 1.70085 58.0364 1.53886 57.8694 1.05287Z" fill="#84B140"/>
<path d="M13.8623 60.2633C14.7887 60.3139 15.2747 60.8505 15.1634 61.7263C15.1046 62.804 14.8739 63.8653 14.48 64.8701C13.625 66.673 12.4052 68.2787 10.8977 69.5858C9.39016 70.8929 7.62772 71.8729 5.72191 72.4638C6.5724 70.5046 8.5113 69.2997 8.1063 66.8951C3.50454 70.2009 -1.0972 73.2738 -7 74.3065C-6.06851 68.9049 -4.85351 63.9386 -1.98311 59.023L-6.73168 60.1772C-5.13195 55.4438 -0.55047 51.0648 3.80323 52.0773C4.98749 52.3498 6.13238 52.7717 7.2103 53.3328C9.60484 54.5781 11.4678 56.4867 13.1587 58.5471C13.4952 59.0992 13.7573 59.6932 13.9382 60.3139C12.5967 59.0787 11.2501 57.8485 9.88829 56.6031C8.2907 55.1234 6.41978 53.9695 4.38035 53.2062C1.30239 52.0267 -3.47147 55.1401 -4.46371 58.618L0.968275 56.5272C-0.838155 58.881 -2.2959 61.4828 -3.36007 64.2525C-4.327 66.9659 -5.45597 69.6794 -5.43572 72.8586C-2.4337 72.2157 0.0317531 70.9096 2.39085 69.4516C4.74995 67.9936 6.94702 66.3433 9.3213 64.703C10.0908 66.3888 9.05805 67.781 9.12893 69.2289C12.4954 67.6544 14.5305 63.7513 13.8623 60.2633Z" fill="#84B140"/>
<path d="M38.551 19.0753C38.5246 18.3136 38.6782 17.5563 38.9993 16.8649C39.3203 16.1736 39.7998 15.5677 40.3988 15.0963C40.7079 14.8324 41.0632 14.6281 41.4468 14.4938C43.6692 13.7345 45.1322 15.4456 46.661 16.4176C47.8811 17.1972 47.6735 18.888 47.0812 20.1942C46.2763 21.9964 44.9247 23.1911 42.8288 23.1759C40.1913 23.1557 38.2979 21.318 38.551 19.0753ZM39.599 18.9741C39.5845 19.4001 39.6568 19.8246 39.8115 20.2218C39.9662 20.619 40.2 20.9805 40.4988 21.2845C40.7976 21.5885 41.1551 21.8286 41.5495 21.9901C41.944 22.1517 42.3671 22.2313 42.7933 22.2242C44.5297 22.2596 46.2713 20.4726 46.3067 18.6147C46.3371 16.8934 44.707 15.4253 42.763 15.4152C40.9861 15.4051 39.6445 16.9593 39.599 18.9842V18.9741Z" fill="#84B140"/>
</svg>
