<svg width="25" height="25" viewBox="0 0 25 25" fill="none" xmlns="http://www.w3.org/2000/svg">
<circle cx="12.5" cy="12.5" r="12.5" fill="white"/>
<path d="M13.9071 7.54379C13.9071 7.04067 14.0562 6.54886 14.3358 6.13053C14.6153 5.71221 15.0126 5.38617 15.4774 5.19364C15.9422 5.0011 16.4537 4.95073 16.9471 5.04888C17.4406 5.14703 17.8938 5.3893 18.2496 5.74506C18.6053 6.10081 18.8476 6.55407 18.9457 7.04752C19.0439 7.54096 18.9935 8.05243 18.801 8.51725C18.6085 8.98207 18.2824 9.37935 17.8641 9.65886C17.4458 9.93838 16.9539 10.0876 16.4508 10.0876C15.7762 10.0876 15.1292 9.81956 14.6521 9.34251C14.1751 8.86546 13.9071 8.21844 13.9071 7.54379ZM19.2244 16.4621C16.6941 18.56 14.954 17.6156 12.9388 16.521C10.8235 15.3731 8.42679 14.0718 5.23354 16.7189C5.16855 16.772 5.11472 16.8375 5.07514 16.9115C5.03556 16.9855 5.01103 17.0666 5.00295 17.1501C4.99487 17.2337 5.00341 17.318 5.02808 17.3982C5.05274 17.4784 5.09304 17.553 5.14665 17.6176C5.20026 17.6821 5.26613 17.7355 5.34045 17.7745C5.41476 17.8135 5.49607 17.8374 5.57967 17.8448C5.66327 17.8522 5.74751 17.843 5.82754 17.8177C5.90757 17.7924 5.98181 17.7516 6.04596 17.6975C8.57623 15.5996 10.3163 16.5448 12.3315 17.6386C13.5326 18.2905 14.8236 18.99 16.3006 18.99C17.4246 18.99 18.6568 18.5838 20.0368 17.4399C20.1666 17.3322 20.2484 17.1773 20.2641 17.0092C20.2797 16.8412 20.228 16.6739 20.1202 16.544C20.0125 16.4141 19.8576 16.3324 19.6896 16.3167C19.5216 16.3011 19.3542 16.3528 19.2244 16.4605V16.4621ZM5.23354 13.54C5.16855 13.5931 5.11472 13.6585 5.07514 13.7325C5.03556 13.8065 5.01103 13.8877 5.00295 13.9712C4.99487 14.0547 5.00341 14.1391 5.02808 14.2193C5.05274 14.2995 5.09304 14.3741 5.14665 14.4386C5.20026 14.5032 5.26613 14.5565 5.34045 14.5955C5.41476 14.6345 5.49607 14.6584 5.57967 14.6659C5.66327 14.6733 5.74751 14.6641 5.82754 14.6388C5.90757 14.6135 5.98181 14.5726 6.04596 14.5185C8.57623 12.4215 10.3163 13.3659 12.3315 14.4597C13.5326 15.1115 14.8236 15.8111 16.3006 15.8111C17.4246 15.8111 18.6568 15.4049 20.0368 14.261C20.1018 14.2079 20.1556 14.1424 20.1952 14.0684C20.2348 13.9944 20.2593 13.9133 20.2674 13.8297C20.2754 13.7462 20.2669 13.6619 20.2422 13.5817C20.2176 13.5014 20.1773 13.4269 20.1237 13.3623C20.0701 13.2977 20.0042 13.2444 19.9299 13.2054C19.8556 13.1664 19.7743 13.1425 19.6907 13.1351C19.6071 13.1276 19.5228 13.1368 19.4428 13.1621C19.3627 13.1874 19.2885 13.2283 19.2244 13.2824C18.7646 13.6772 18.2479 14.0004 17.6917 14.2411L13.4118 9.96277C12.6457 9.19327 11.7347 8.58329 10.7314 8.16808C9.72813 7.75287 8.65248 7.54068 7.56667 7.54379H5.63975C5.47109 7.54379 5.30933 7.61079 5.19007 7.73005C5.07081 7.84931 5.00381 8.01107 5.00381 8.17973C5.00381 8.3484 5.07081 8.51015 5.19007 8.62941C5.30933 8.74868 5.47109 8.81568 5.63975 8.81568H7.56667C8.72904 8.81345 9.8735 9.10203 10.8958 9.65513L8.54046 12.0089C7.53328 12.1035 6.44025 12.5391 5.23354 13.5392V13.54Z" fill="#95C64A"/>
</svg>
