<svg width="72" height="73" viewBox="0 0 72 73" fill="none" xmlns="http://www.w3.org/2000/svg">
<path d="M14.2806 32.2953C9.06085 21.7245 5.76077 10.4288 6.73138 6.12261C8.35917 6.44013 9.9656 6.85927 11.5413 7.37766C15.8552 9.10159 20.133 10.9049 24.375 12.7875C28.031 14.3996 31.1801 13.6206 33.9733 10.9915C36.7665 8.36228 39.3656 5.66814 42.1372 3.10388C44.0245 1.36192 46.0736 -1.04002 48.91 0.485547C51.4228 1.838 50.9482 4.81339 50.8188 7.22617C50.6463 10.7101 50.3119 14.1941 50.2041 17.6888C50.0639 22.0167 51.5845 25.2625 55.7474 27.1776C60.3632 29.3415 64.8819 31.6137 69.3576 34.0373C70.436 34.6432 72.0213 35.9523 71.9998 36.9153C71.9782 37.8782 70.6301 39.4255 69.4223 39.8583C64.8356 41.6606 60.1555 43.2137 55.4023 44.5107C51.0884 45.5927 49.2658 48.4166 48.8345 52.6146C48.2844 58.111 47.6482 63.5966 46.9687 69.0822C46.505 72.8041 43.6147 74.2323 40.8107 71.7871C38.5019 69.5991 36.5058 67.1013 34.8792 64.3647C33.3187 61.7469 31.9317 59.029 30.7271 56.2284C29.4761 53.5451 27.7074 52.1927 24.5583 52.6363C19.6837 53.3179 14.7767 53.7183 9.8697 54.2051C7.41059 54.434 4.93885 54.4954 2.47146 54.389C0.131206 54.2809 -0.634499 52.8959 0.551807 50.851C1.80442 48.8926 3.16167 47.0037 4.6176 45.1923C7.78827 40.8969 11.0237 36.6124 14.2806 32.2953ZM47.2168 2.00032C45.5775 3.38524 43.8951 4.71601 42.3206 6.1442C39.9587 8.30813 37.6077 10.4721 35.3645 12.7334C31.8487 16.3039 27.8153 16.7908 23.4044 14.8973C20.169 13.5232 17.0199 12.1491 13.8169 10.8075C12.1668 10.115 10.4952 9.48752 8.10103 8.55703C8.62947 10.5911 8.83438 11.6947 9.17949 12.7442C11.0129 17.9485 12.8139 23.1744 14.809 28.3137C15.2462 29.3059 15.4603 30.3825 15.4361 31.4671C15.4119 32.5517 15.1499 33.6175 14.6688 34.5891C13.7653 36.4065 12.7157 38.147 11.5305 39.7934C8.66183 43.7317 5.67449 47.5835 2.35283 51.9763C3.39793 52.1019 4.44938 52.1669 5.50194 52.171C11.5773 51.6733 17.649 51.1468 23.7171 50.5913C29.5516 50.0612 30.0908 50.4832 32.7762 55.6766C34.9331 59.9287 37.4567 64.0293 39.9803 68.0975C40.8754 69.5365 42.1372 71.0189 44.4343 70.0235C44.5206 69.3959 44.6177 68.6926 44.704 67.9894C45.4589 62.0818 46.106 56.1635 47.0011 50.2776C47.1811 48.5254 47.9011 46.873 49.0609 45.5505C50.2206 44.2279 51.7625 43.301 53.4718 42.8986C56.4052 42.0763 59.3279 41.2215 62.2181 40.2478C64.5908 39.4579 66.8879 38.4734 69.2281 37.5753C69.2281 37.2507 69.2281 36.9261 69.2281 36.6015C67.8801 35.8766 66.532 35.1193 65.1516 34.4376C61.7868 32.7389 58.4651 30.9428 55.0248 29.4065C50.01 27.1668 47.8315 23.2933 48.0148 17.9701C48.1335 14.7783 48.5648 11.5865 48.6188 8.39471C48.6835 6.30652 49.6864 3.93702 47.2168 1.97866V2.00032Z" fill="#F68B1F"/>
</svg>
